<?xml version="1.0" encoding="utf-8"?>
<svg version="1.1" id="Layer_1" x="0px" y="0px" viewBox="0 0 33.5 34.9" style="enable-background:new 0 0 33.5 34.9;" xmlns="http://www.w3.org/2000/svg">
  <title>Asset 122</title>
  <g>
    <g id="Layer_1-2">
      <polygon points="33.5,2.8 33.3,2.4 32.3,2.4 31.9,2.7 31,2.8 30.9,2.4 30.1,2.5 29,3.2 28.7,3.4 28.6,3.8 28.1,4.2 27.3,4.5 &#10;&#9;&#9;&#9;27.2,4.8 26.8,5.1 26.1,5.1 25.7,4.9 25.7,4.6 25.3,4.1 25.2,3.2 25.2,2.8 25.2,2.2 25,1.8 24.6,1.8 24.5,1.4 24.6,0.9 24.6,0.5 &#10;&#9;&#9;&#9;24.1,0.3 23.7,0 23.1,0 22.8,0.4 22.7,1.1 22.4,1.3 22.2,1.6 22.4,2.2 22,2.7 21.5,2.8 21.4,2.5 21.1,2.5 20.9,2.8 20.4,2.9 &#10;&#9;&#9;&#9;20.4,3.2 20.6,3.4 20.6,3.8 19.7,3.7 19.5,3.4 19.2,3.2 18.9,3.5 18.6,3.5 18.4,3.9 17.8,4.2 17,4.3 16.6,4.2 16,3.5 15.6,3.5 &#10;&#9;&#9;&#9;15.2,3.9 14.9,3.8 14.6,3.4 14,3.2 13.2,3.4 13,3.2 12.5,3.4 12,3.1 11.4,3.2 10.6,3.8 10.4,3.7 9.8,3.9 9.5,4.1 9.2,4.2 9.2,4.5 &#10;&#9;&#9;&#9;9.4,4.6 9.4,5.1 8.8,5.7 8.8,6.2 8.7,6.8 8.3,6.9 7.9,7.2 7.8,7.4 6.8,7.6 6,8 6.2,8.3 5.8,8.6 5.8,8.9 5.4,9.2 4.7,9.3 4.4,9.6 &#10;&#9;&#9;&#9;4.2,9.4 4,9.1 3.5,8.7 3,8.7 2.7,9 2.3,9 1.9,8.7 1.4,8.6 1.1,8.6 1.1,8.7 1.1,9.3 1.1,9.6 1,10 1.3,10.4 1.2,10.5 1.2,10.8 &#10;&#9;&#9;&#9;0.6,11.2 0,11.3 0.2,11.6 0.6,11.9 0.2,12.5 0.3,12.6 0.5,13.4 0.5,13.9 1.3,14.1 1.5,14.1 0.8,14.9 0.6,15.5 1.3,16.7 1.7,17.8 &#10;&#9;&#9;&#9;1.5,18.1 1.7,18.5 1.8,19.3 4,19.4 4.4,20.1 4.3,20.8 4.6,21.7 4.4,22 2.5,24.3 6,25.1 8.9,25.1 9.7,24.9 10.5,24.9 10.8,24.7 &#10;&#9;&#9;&#9;11.7,24.5 13,24.4 13.8,24.3 14.7,24.3 15.7,23.9 15.8,23.5 15.6,23.1 15.6,22.6 15.5,21.9 15.4,21.2 15.8,20.9 16.2,20.7 &#10;&#9;&#9;&#9;16.3,20.4 16.5,20 17.1,19.9 17.4,20.1 18.4,19.7 18.6,19.4 18.2,19.3 19.2,18.6 19.3,18.3 19.9,18.3 20.2,18.4 20.8,18.5 &#10;&#9;&#9;&#9;20.9,18.2 21.2,18.2 21.6,18.7 22.2,18 22,17 22.2,16.8 22.2,16.5 22.4,15.9 22.5,15.1 22.6,14.8 23.2,14.8 23.8,14.5 23.9,14.1 &#10;&#9;&#9;&#9;23.6,13.4 23.1,13.2 22.8,12.6 23.4,12.2 24.3,12.6 25.3,12.6 25.9,11.7 25.9,11.1 25.3,10.5 26.5,9.1 26.4,8.1 25.4,6.7 &#10;&#9;&#9;&#9;25.8,6.3 26.2,5.7 26.9,5.7 27.5,5.2 28.4,4.8 28.9,5.1 31.5,4.7 32.6,4.2 33.1,3.5 32.7,3.3 &#9;&#9;"/>
    </g>
  </g>
</svg>