<?xml version="1.0" encoding="utf-8"?>
<svg version="1.1" id="Layer_1" x="0px" y="0px" viewBox="0 0 18.8 38.6" style="enable-background:new 0 0 18.8 38.6;" xmlns="http://www.w3.org/2000/svg">
  <title>Asset 63</title>
  <g>
    <g id="Layer_1-2">
      <polygon points="16.6,20.3 15.6,18.2 13.9,15.6 13.2,12.2 13.7,9 13.2,8.2 13.2,5.3 12.6,4 10.5,2.8 9.6,2.5 8.2,0.5 7.5,0 &#10;&#9;&#9;&#9;7.4,0.1 5.7,2.1 4.4,0.4 3.7,0.3 1.6,2.7 0.1,5.3 0,8.6 3,10 2.7,11.4 1.7,11.8 0.8,15.9 2,18.8 1.1,20.8 1.1,23 2.2,24.6 &#10;&#9;&#9;&#9;1.5,26.7 2.5,27.9 6.2,28 8.1,32.3 9.9,33.5 11.2,32.8 12.6,30.1 12.8,28 16.8,26.8 18.4,24.1 18.8,21.7 &#9;&#9;"/>
    </g>
  </g>
</svg>