<?xml version="1.0" encoding="utf-8"?>
<svg version="1.1" id="Layer_1" x="0px" y="0px" viewBox="0 0 33.5 37" style="enable-background:new 0 0 33.5 37;" xmlns="http://www.w3.org/2000/svg">
  <title>Asset 173</title>
  <g>
    <g id="Layer_1-2">
      <path d="M33,22.2l-0.2-0.1l-0.3-0.6l-0.2-0.3L32,21h-0.6h-0.7l-0.2-0.2l-0.1-0.3l-0.2-0.2v-0.4l0.1-0.2l-0.1-0.4l-0.1-0.1 l-0.3-0.6l-0.4-0.5L29.2,18l0.1-0.1l0.1-0.2l0.4-0.3l0.2-0.2l-0.1-0.5l-0.2-0.4l0.1-0.1l0.2-0.8L29.7,15l-0.1-0.8V14v-0.5v-1 l-0.2-0.4L29.3,12v-0.5l0.1-0.1l-1-3L28,7.9h-0.3l-0.2-0.2l-0.4-0.1L27,7.2l-0.5-0.4l-0.2-0.1l-0.2-0.3l0.1-0.2L26,5.9l-0.1-0.1 l0.2-0.7l0.4-0.4l0.3-0.1l0.1-0.2l0.2-0.1l0.1-0.5l0.1-0.2l-0.2-0.2l0.1-0.2l0.1-0.1V3l-0.2-0.2l-0.1-0.4l0.3-0.7V1.2l0.1-0.5 l-0.1-0.2l0.1-0.2l-0.1-0.1l-0.5,0.1l-0.3,0l-0.7,0.2l-0.4-0.3L25.1,0v0.2l-0.3,0.3h-0.6V0.2L23.9,0l-0.4,0.1v0.2l-0.3,0.1L23,0.6 l-0.2-0.1h-0.3l-0.3,0.2h-0.4l-0.2-0.3h-0.5L21,0.3l-0.4,0.1h-0.4l-0.2,0l-0.3-0.1h-0.2l-0.2,0.3H19l-0.4-0.1l-0.4,0.4H18 l-0.4-0.2l-0.4,0.1h-0.6l-0.4,0l-0.8,0.6l-0.5,0.1h-0.2l-0.4,0.2v0.2l-0.2,0.2h-0.2L13.8,2h-0.2l-0.2,0.1l-0.1,0.1h-0.5l-0.4,0.2 l-0.2,0.2l-0.1,0.2l-0.3,0.3l-0.5,0.2h-0.4L11,3.4l0.1,0.2l0.2,0.2v0.3l0.1,0.1v0.5v0.6l0.1,0.2l0.1,1.1L11.8,7l0.1,0.3l0.3,0.1 l0.2,0.1h0.2l0.1,0.1l-0.2,0.4v0.1l-0.2,0.3h-2L9.8,8.5L9.4,9.1L9,9.4l0,0.5v0.5l-0.1,0.3l-1.2,0.7L6,12.2L4.6,13l-0.7,0.1H3.3 l-0.3,0H2.5l-0.9,0.2l-0.5,0.3L0.8,14L0,14.5v1.3l0,0v0.4l0,0l6,3.7l0,0l11,6.6l0.2,0.7l0.4,0.3h0.6l0.5,0.1l0.3,0.3l0.4,0.1 l0.3,0.3v0.2L19.5,29l0.1,0.2l0.4,0.1l0.8-0.1l0.6-0.2l0,0l2.5-0.5l2.1-1.7l7.5-4.2l-0.2-0.2L33,22.2z"/>
    </g>
  </g>
</svg>