<?xml version="1.0" encoding="utf-8"?>
<svg version="1.1" id="Layer_1" x="0px" y="0px" viewBox="0 0 33.5 39" style="enable-background:new 0 0 33.5 39;" xmlns="http://www.w3.org/2000/svg">
  <title>Asset 172</title>
  <g>
    <g id="Layer_1-2">
      <path d="M1.9,2.8L1.6,3.3l0.1,0.3l0.5-0.3l0.5-0.1l0.3-0.3L3,2l0.2-0.3l0.6-0.4l0.5-0.4V0.5L4,0.2L3.8,0H3.5L3.1,0.3L2.7,0.4 L2.5,0.8L2.1,1H2L1.7,1.6L1.5,1.7L1.8,2L1.9,2.8z M33.3,21l-0.2-0.3l0.1-0.7l0.2-0.2v-0.4L33.1,19v-0.5v-0.9l-0.2-1l0.1-0.2v-0.2 v-0.1l-0.5,0l-0.4,0.1l-0.5,0.2l-0.3,0.1h-0.3h-0.2h-0.7L30,16.6l-0.4-0.3h-0.3l-0.1,0.1L29,16.5l-0.2,0.2h-0.3l-0.1-0.2V16 l0.2-0.2v-0.1l0.2-0.4l-0.3-0.2l-0.1-0.5l0.1-0.1v-0.3L28.2,14v-0.3l0.1-0.3v-0.3h-0.2l-0.2-0.3l-0.2-0.1v-0.3l-0.2-0.3v-0.2 l-0.1-0.2l0.2-0.5l-0.1-0.9L27.4,10l0-0.2l0.1-0.2V9.4L27.2,9l0.1-0.4l0.2-0.4V7.8V7.5l-0.1-0.3L24.4,7l-0.1-0.2l0.2-0.3V6.2 l-0.8-0.1v0.2h-2.6L21,7.1l-0.2,0.4l-0.2,0.1L20.6,8v0.6l-2,0.1L18.4,9l-0.9-0.1l-0.3-0.1l-0.5,0.1h-0.7l-0.3-0.1L15.5,8l-0.4-0.4 l-0.2-0.3L14.7,7V6.8l-0.1-0.2L14.4,6l-0.3-0.4V5.2L14.3,5V4.7L14,4.4l-0.1-0.3L14,4V3.7h-2.8H9.3L8.4,3.8H7.6H7.1H6.3H5.7H5.2 H4.8H4.4L4,3.7L3.5,3.8L3.4,3.9H3.2L3.1,4l0,0H3L2.2,4.4l0.3,0.3v0.4L4,6.6v1.9l0.8,1l-0.1,0.9l-0.8,1l0.5,0.2v0.9l0.4,0.6v0.6 l1,1.5v0.4L6,16v2.1l-1,1.8H4.7l-1.2,0.8v0.6L2,22.4v0.8l-0.2,0.2v1.9l-0.6,0.8L0.9,27l-0.7,0.8v0.9l-0.1,0.8v1.2L0,31.4v0.2l0,0 l0.4,0.1l0.2,0.1l0.2-0.1l0.1-0.3L1,31.4l0.7,0.1L2,31.6l0.2-0.2l0.1-0.3l0.8-0.5h0.3l0.4,0.2L4,30.9l0.2-0.1l0.2-0.1l0.3,0.2V31 L5,31.1v0.2l0.2,0.1l0.6,0.5l0.6,0.2l0.4-0.2h0.1l0.4-0.2h0.3l0.2,0.1h10l0.2,0.1l0.3,0.5l0.2,0.2l0.5,0.2l0.6,0.1l0.4-0.1 l0.3,0.1l0.1,0.2l0.4,0.1l0.4-0.2l0.5-0.1l0.6,0.2l0.4,0l0.1-0.3l0.1,0.1H23l0.6,0.5l0.4,0.2h0.6l0.2-0.1v-0.2L25,33l0.3,0.1 l0.2,0.1l0.2-0.1l0.2,0.2h0.2l0.1,0.1h0.2h0.2h0.2l4.2-0.8l-0.2-0.4l-0.3-0.1l-0.3-0.4L30,31.5l-0.4-0.1L29.3,31l-0.5-0.6 l-0.3-0.2L28.2,30l-0.3-0.3l-0.4-0.4L27.4,29l0.2-8L33.3,21z"/>
    </g>
  </g>
</svg>