<?xml version="1.0" encoding="utf-8"?>
<svg version="1.1" id="Layer_1" x="0px" y="0px" viewBox="0 0 14.3 39" style="enable-background:new 0 0 14.3 39;" xmlns="http://www.w3.org/2000/svg">
  <title>Asset 13</title>
  <g>
    <g id="Layer_1-2">
      <path d="M6,31.2L6,31.2v-0.3l-0.3-0.3l-0.1-0.2l0,0l0.3,0.9l0.1-0.1L6,31.2z M8.9,32.8l-0.3,0.1H8.3l-0.2-0.2l-0.3-0.1l-0.1-0.1 l-0.7-0.2l-0.2-0.1v-0.2l-0.2-0.2H6.4l-0.1-0.3l-0.1-0.2l-0.2,0l-0.2-0.1l0.4,1.5h0.1l0.3-0.1h0.3h0.2v0.1H6.9L6.7,33H6.3l0.1,0.3 h0.1l0.3-0.1h0.4h0.3h0.4l0.2,0.1l0.2,0.1h0.2l0.2-0.2v-0.1h0.2l0.1,0.1L9,33v-0.1L8.9,32.8z M14.3,4.1V3.7V3.5l-0.2-0.3V3h-0.4 l-0.2,0.1v0.2v0.1v0.3l-0.2,0.1L13.2,4l-0.1,0.2l-0.4,0.3l-0.1,0.2l-0.2,0.2h-0.2h-0.1L12,5l-0.1-0.1h-0.1L11.6,5l-0.4-0.2 l-0.5-0.2l-0.6,0.1H9.9L10,4.5l0.3-0.3L10.4,4V3.8l0.1-0.1l0.1-0.1l0.1-0.2l0.1-0.2L10.6,3l-0.3-0.2l-0.2-0.2L9.6,2.5L9.2,2.3 L8.9,2H8.7L8.3,1.8L7.8,1.7L7.7,1.5L7.4,1.3H7.2L6.7,0.8L6.4,0.4H6.3L6.1,0.2L5.9,0.1L5.4,0H4.9L4.8,0.2v0.2L4.7,0.5v0.1L4.6,0.8 l0-0.1L4.4,0.3V0.1H4.3l-0.4,0H3.7H3.5H3.3L3.1,0L2.8,0.1L2.5,0.4L2.3,0.7L2.2,0.8L2.3,1L2.1,2L1,2.5v0.2l0.2,0.1V3L1.1,3.1 l0.1,0.3l0.2,0.2v0.2L1.2,3.9v0.2l0.1,0.1l0.1,0.1v0.2l0.1,0.1L1.3,4.7L1.1,4.8L0.9,5L0.6,5.5L0.4,5.7L0.4,6.3L0.3,6.4l0,0.6 l0.2,0.3v0.3L0.3,7.8v0.4L0,8.3v0.3L0.1,9l0.2,0.2v0.1l0.2,0.3l0.1,0.2l0.1,0.5l0.1,0.1l0.1,0.6v0.4H0.7l-0.1,0.3l0.1,0.3 l-0.2,0.3l0.1,0.1l0.2,0.3l0.1,0.3l-0.2,0.2l-0.2,0.3v0.8l-0.1,0.3l0.5,0.9l-0.1,0.1l-0.2,0.1v0.4l-0.3,0.4V17l0.2,0.3l-0.1,0.6 v0.5l0.1,0.4l0.2,0.1L0.6,19l-0.1,0.2l-0.2,0.1V20l0.1,0.2l0.3,0.1v0.3v0.2l0.2,0.3L1,21.5h0.2l0.1-0.1h0.1v0.2l-0.2,0.2H0.9 L0.8,22l0.1,0.1l0.1,0h0.2l0.3,0.2l0.2,0.3v0.2l-0.2,0.2v0.2l0.1,0.2l0.1,0.5l0.1,0.3l-0.2,0.1v0.2l0.2,0.4L1.5,25l-0.1,0.4 l0.1,0.3l0.1,0.4l-0.1,0.4l-0.3,0.3L1,27.1l-0.1,0.7L1,28l0.4,0.7h0.2l0.1-0.1L2,28.5h0.2v0.2l0.1,0.5l0.2,0.1l0.1,0.3l0.1,0.3 h0.4L3.3,30l0.6-0.1H5L5.1,30h0.2l0.3,0.2l0.2,0.1h0.1v-0.1L5.6,30l-0.3-0.2v-0.2l-0.2-0.1H5.1L5,29.5l0.1-0.1v-0.1l0,0v-0.1 l-0.2-0.4l-0.2-0.3v-0.2l0.1-0.3L5,27.9l0.1-0.1L5,27.7v-0.1l-0.1-0.1l0.1,0l0.1,0.1h0.1l0.2-0.1v-0.1l0.2-0.2l0.1-0.1l-0.1-0.3 H5.5l-0.1,0.1v-0.1l0.2-0.1l0.1-0.2v-0.2l0.2-0.2H6l0.1-0.2l0.1-0.2h0.1v-0.1l0.2-0.1l0.1-0.1v-0.1v-0.1l0.1-0.1l-0.2-0.1H6.4 l0.2-0.1v-0.1l-0.1-0.2v-0.1l0.1-0.1l-0.1-0.1H6.3H6.3h0H5.9l-0.3-0.3l-0.2-0.2H5.2l-0.2-0.1l-0.2-0.3v-0.2l-0.1-0.1V23L5,22.9 v-0.1l0.1-0.2h0.1l0.2-0.1h0.2l0.2-0.2h0.3h0.2l0.3,0v-0.1l0-0.1H6.2v-0.1v-0.1l0.2-0.1v0l0.1-0.1v-0.1l-0.2-0.2v-0.1V21l-0.1-0.1 v-0.2l0.1-0.1l0.1-0.2l-0.1-0.1l0.1-0.1l0.3-0.1L6.9,20v-0.1l-0.3-0.1H6.5l-0.1-0.1v-0.1l0.2-0.1l0.2-0.1L7,19.5v0.1v0.1l0.1,0.2 h0.1l0.3-0.2v-0.2l-0.1-0.2l-0.1-0.1h0.1v-0.1l-0.1-0.2h0L7.1,19H7H6.9h0.1h0.2v0.1l-0.3,0.1H6.7l0.1-0.1l0.1,0l-0.1,0H6.5H6.3 l-0.1-0.1v-0.4l-0.1-0.3L5.9,18v-0.3l0.2-0.2h0.1l-0.1,0.1h0.1h0.2l0.3,0.1L7.1,18L7.4,18h0.5l0.3-0.2l0,0l0.2-0.1v-0.1v-0.1 l0.1-0.1l0.1-0.1H8.3L8.2,17v-0.2l0.1-0.1v-0.1l0.2-0.1l0,0h0.1v-0.1v-0.1H8.3v-0.1L8.2,16v-0.3l-0.1-0.1v-0.1l0.1-0.1l0.1,0.1 h0.1l0.3,0.1l0.2,0.1h0.2l0.3-0.1h0.3H10l0.6-0.1l0.6-0.2v-0.1l0.1,0.1l0.4-0.1l0.5-0.3l0.1-0.1l-0.1-0.2l0.1-0.3l0.1-0.1v0.1 l0.1-0.1l0.1-0.3l0.2-0.3v-0.1v-0.4v-0.1l0,0l-0.1,0.1h-0.2l-0.2-0.1l-0.1-0.2v-0.1l0.2-0.4v-0.2L12.1,12l-0.5-0.3l-0.4-0.1 l-0.4-0.3l-0.1-0.1h0.1V11l-0.1-0.1v-0.1l-0.1-0.3l0.1-0.3l0,0v-0.1l0.1-0.1V9.9l-0.1-0.3V9.3l0.1-0.1l-0.1-0.3l0.1-0.2V8.6 L11,8.5V8.1L10.9,8L11,7.9l-0.1-0.3l0.2-0.2l0.1-0.2V7.1L11.3,7V6.9l0.1-0.2l0.1-0.1l0.2-0.3l0.1-0.1H12V6l0.1-0.1l0.3-0.3h0.1 h0.1V5.3h0.1L13,5.1h0.1L13.2,5l0.4-0.2l0,0l0.1-0.1V4.6L14,4.5h0.2l0.1-0.1L14.3,4.1z M9.9,33H9.7l-0.1,0.1l0.1,0.1L9.9,33 l0.2,0.1l0.2-0.1H10L9.9,33z"/>
    </g>
  </g>
</svg>