<?xml version="1.0" encoding="utf-8"?>
<svg version="1.1" id="Layer_1" x="0px" y="0px" viewBox="0 0 33.5 34.7" style="enable-background:new 0 0 33.5 34.7;" xmlns="http://www.w3.org/2000/svg">
  <title>Asset 121</title>
  <g>
    <g id="Layer_1-2">
      <polygon points="33.5,20.1 31.3,18.3 28.6,18.1 24.4,16 23.3,13.5 24.4,12.3 24.3,10.6 20.5,7.8 20.4,6.1 21,4.2 19.2,2.4 &#10;&#9;&#9;&#9;15.8,2.1 13.5,0.1 8.3,0.3 7.1,0 2.9,0.9 0,1.8 1.5,3.2 1.6,4.2 3.3,4.6 4.3,6.4 3.7,9 3.8,12.3 6.5,13.8 9.4,13.9 11.2,13.8 &#10;&#9;&#9;&#9;12.8,15.2 13.5,16.2 15.1,16.2 16.6,15.4 19.1,17.5 20.1,16.7 21.7,16.7 23.3,19.3 25.5,19.9 29.7,25.7 31.8,25.3 31.8,23.5 &#10;&#9;&#9;&#9;32.5,22.8 31.2,20.6 &#9;&#9;"/>
    </g>
  </g>
</svg>