<?xml version="1.0" encoding="utf-8"?>
<svg version="1.1" id="Layer_1" x="0px" y="0px" viewBox="0 0 33.5 29.2" style="enable-background:new 0 0 33.5 29.2;" xmlns="http://www.w3.org/2000/svg">
  <title>Asset 62</title>
  <g>
    <g id="Layer_1-2">
      <polygon points="33.3,7.5 33.5,6.6 33.3,5.7 32.9,3.3 33,1.9 31.2,1.5 30.3,1 29,1.2 27.7,1.2 26.5,0.4 24.8,0.3 23.8,0 23.4,0.8 &#10;&#9;&#9;&#9;22.9,1.2 22.9,1.9 21.5,1.9 21.1,2.4 18.7,1.2 18,1.1 17.8,1.9 17.9,2.8 17.1,2.8 16.6,3.6 15.4,4.1 14.2,5.6 14.2,6.1 15.4,6.7 &#10;&#9;&#9;&#9;15.5,7.5 15,7.8 13.9,7.2 12.9,7.5 11.8,7.2 11,7.3 9.5,8.2 8.6,8.4 7.9,8.2 7.1,8.4 6.3,7.9 5,7.8 3.7,7.9 3.8,8.5 3.5,8.9 &#10;&#9;&#9;&#9;2.3,8.6 1.7,7.9 0.8,8.2 0.3,8.5 0,8.5 0.6,8.8 0.6,9.4 1.1,9.8 1.1,10.6 1.8,10.7 2.4,10.5 3.4,11.3 4.2,10.6 5,10.6 5.4,11.4 &#10;&#9;&#9;&#9;5.4,11.3 7,12 9.5,10.6 10.5,10.9 12.2,10.8 12.1,11.6 14.4,12.9 17.3,13.4 18.9,13.3 19.6,13.8 19.6,13.8 20.4,13.9 22.5,13.9 &#10;&#9;&#9;&#9;23.1,14.6 24.3,14.2 25.3,14.2 26.4,13.7 27.1,13.6 27.6,13.7 29.7,12.6 31.1,12.2 31.9,11.4 31.3,10.6 31.5,9.7 31.9,8.7 31,7.8 &#10;&#9;&#9;&#9;31.2,7.4 &#9;&#9;"/>
    </g>
  </g>
</svg>