<?xml version="1.0" encoding="utf-8"?>
<svg version="1.1" id="Layer_1" x="0px" y="0px" viewBox="0 0 33.5 38.1" style="enable-background:new 0 0 33.5 38.1;" xmlns="http://www.w3.org/2000/svg">
  <title>Asset 79</title>
  <g>
    <g id="Layer_1-2">
      <path d="M20.7,1.2h-0.1H20.7L20.7,1.2z M20,1.6L20,1.6l-0.2,0h0.1L20,1.6z M20.4,1.2L20.4,1.2L20.4,1.2L20.4,1.2z M20.2,1.4h0.1 l0-0.1L20.2,1.4h-0.1v0.1L20.2,1.4z M17.7,0.9l0-0.1h-0.1L17.7,0.9l0,0.1L17.7,0.9z M10.7,4.2l-0.1-0.1l-0.1,0.1l0.1,0.1L10.7,4.2 z M15.9,1.1L16,1.2l0.1,0.1l0.2,0.1l0.3-0.3h0.1V1.1l0.1-0.1l0-0.1l0-0.1h-0.1h-0.1h-0.2L16.2,1l-0.1,0V0.9H16l-0.1-0.1h-0.1v0.1 L15.9,1.1z M10.6,4.7V4.5l-0.1-0.1L10.6,4.7L10.6,4.7z M11.3,3.5L11.3,3.5l-0.1,0.1L11.3,3.5L11.3,3.5z M15.9,1.3h0.2l0,0H15.9 l0-0.3h-0.1l0,0v0.1l0,0l0,0h-0.1l0,0v0.1L15.9,1.3L15.9,1.3z M31.5,10.3L31.5,10.3L31.5,10.3L31.5,10.3z M25.8,0h-0.1H25.8 L25.8,0z M28.5,6.9L28.4,7l0.1,0.1L28.5,6.9l0.1-0.2h-0.1h-0.1L28.5,6.9z M2.7,8.6V8.4L2.5,8.6v0.1L2.7,8.6z M32,11.7v-0.1v-0.1 v-0.1h-0.1l-0.1-0.1l0,0l0.1,0.2L32,11.7z M21,0.9l0.1-0.1l0-0.1L21,0.9L20.9,1L21,0.9L21,0.9z M20.8,1.1L20.8,1.1L20.8,1.1 L20.8,1.1z M25.7,0.5L25.7,0.5l0-0.1h-0.1L25.7,0.5L25.7,0.5z M23,5.8L23,5.8L23,5.8L23,5.8L23,5.8z M22.9,5.4L23,5.3h0.2l0,0H23 l-0.2,0.1c0,0,0,0.1,0,0.1l0.1,0.1L22.9,5.4z M33,15.7v-0.2l-0.1-0.3v-0.1V15l0.1-0.1v-0.2l0.2-0.2v-0.1L33,14l0.1-0.1L33,13.8 l0-0.1v-0.3h-0.1l0.1-0.2l-0.2-0.1L32.8,13v-0.2l-0.2-0.1l-0.1-0.2v-0.2L32.3,12h-0.1l-0.1,0.1L32,12v-0.2h-0.1v-0.1l-0.2-0.2 l-0.1-0.1l0-0.1l-0.1-0.2l0.2-0.2v-0.2l0-0.1v-0.1l-0.1-0.1v0.1l0,0.1l-0.1,0.1l-0.4-0.3l-0.1-0.2H31v0.1l0,0.1l0.1,0.2l-0.2-0.2 l-0.1,0.1v-0.1l-0.1-0.1V9.8l0,0V9.7l-0.2-0.1l0.1-0.1l-0.1-0.1V9.3l-0.3-0.2l-0.1-0.1V8.7h0.1V8.6l-0.1-0.2h-0.1H30l-0.2-0.2 h-0.1l-0.1-0.1l-0.1,0.1l-0.1-0.1h-0.2l-0.1,0.1L29.2,8h0.2V7.9V7.8H29V7.7h-0.1l-0.3-0.2l-0.1-0.3V7l-0.1-0.2V6.7h0.1l0.1-0.3 L28.4,6l-0.1-0.2h0.1l-0.1-0.1h-0.1L28,5.4V5H28V4.8L28,4.8V4.3l0-0.1L27.9,4h0.1V3.9l-0.3-0.3l-0.2-0.1l0-0.1l-0.2-0.2l-0.2,0.1 h-0.1L27,3.5h-0.1l-0.2-0.2V3.2L26.6,3l0.1-0.3V2.4h-0.1l-0.1-0.1l0.1-0.1L26.5,2V1.8l-0.1,0V1.6l0.1-0.1l-0.1,0h-0.1l-0.1-0.1 L26.2,1h-0.1l0-0.2h-0.2V0.6l-0.2,0.1l-0.1,0.1v0.3l-0.1,0.2v0.1v0.1h-0.1l-0.1,0.3l-0.1,0.2L25.3,2l0.2,0.1l-0.1,0.1h-0.1 l-0.1,0.2l-0.1,0.2l0.1,0.2v0.1h-0.1l-0.1,0l-0.1,0.4L25,3.4v0.3l0.1,0.2v0.2l-0.2,0.1v0.1l-0.2,0.3v0.4l-0.1,0.1l0.1,0.2 l-0.1,0.2l-0.1,0.1V6l-0.3,0.2l-0.5,0.2l-0.2-0.1h-0.2L23,6.1l-0.2-0.2V5.8l-0.1-0.1V5.6h-0.2l-0.2-0.1h-0.3l-0.2-0.1V5.3L21.6,5 h-0.2l-0.2-0.1V4.8h-0.1L21,4.7h-0.2h-0.1V4.7l-0.2-0.2V4.4l-0.2-0.2h-0.1L19.9,4V3.8l0.1-0.2V3.3l0.2-0.1L20.3,3l0.1-0.1L20.3,3 l-0.1-0.2l0.2-0.1V2.5h0.1h0.1h0h0.1l0.2-0.1l0.1-0.2l-0.1-0.1l0.1-0.1H21l0.1-0.3h0.1l0.1-0.1V1.7l-0.2-0.1L21,1.7h-0.1V1.4 l-0.1,0.1l-0.2,0.2h0.1v0.1l-0.1,0.1l-0.1-0.1V1.7l-0.1-0.1l-0.1,0.1h-0.1V1.6l0.1-0.1V1.5h-0.1L20,1.5l-0.2,0.1v0.1h-0.1l0-0.1 h-0.2v0l-0.1-0.2h-0.1l-0.2,0.1L19,1.5h-0.1l-0.1-0.1h-0.1l-0.1-0.2l-0.2,0.1h-0.2l-0.2-0.1V1.1L18,1l0,0v0.1l-0.3,0.1L17.7,1 h-0.1l-0.2-0.2v0.1l-0.1-0.1L17,0.9L17.2,1l0,0h0.1l0.1,0l0.2,0.2v0.1l0,0.2h-0.2l-0.1,0.2l-0.1-0.1h-0.1l-0.1,0.1h-0.5l-0.2-0.1 v0.1l-0.2,0.1v0.1h-0.2L16.2,2l-0.1-0.1l-0.2,0L15.9,2L16,2.1v0.1l-0.2-0.1l-0.1,0.1l0.1,0.1h-0.1l-0.1,0.1v0.1l0.1,0.1v0.1 l-0.1-0.1l-0.1,0.1h-0.1l-0.1,0.2L15,3.1h-0.1l-0.1,0.2l-0.1,0.1l0.1,0.1l0.3,0H15l-0.1,0.1l0.3,0.1l-0.1,0h-0.2l-0.1-0.1v0.1 L15,3.9V4l0.1,0.2l-0.2-0.2l-0.1-0.2h-0.2V4l-0.1,0.1V4l-0.4-0.2H14l0.1,0.1L13.9,4l-0.1-0.1h-0.1L13.7,4l0.1,0.1v0.1V4.2h-0.1 v0.1l-0.2,0.1h-0.2l0.2-0.1l0.1-0.2V3.9l0.1-0.2l-0.1-0.1h-0.2l-0.2-0.4l-0.1-0.2L12.9,3l-0.1-0.1L12.6,3L12.7,3h-0.1l-0.1,0.2 h-0.1V3.1h-0.1v0.1L12.2,3h-0.1v0.1l0.1,0.1L12,3.3l-0.1,0.2L12,3.6l-0.2,0.1l-0.1-0.1h-0.1V3.5l0.1-0.1h-0.1l-0.1,0.2h-0.2 l-0.1,0.1v0.2l0.3,0.1L11.3,4l-0.2-0.1L11,4.1v0.1h0.2l-0.1,0.1H11l-0.2-0.2l-0.1,0.1h-0.2v0.1v0.1v0.1h0.1l-0.1,0.2l0.1,0.1 l-0.1,0.1L10.4,5h0.3l-0.2,0.1v0.1h-0.2L10.3,5l-0.1,0l-0.1,0.1L10,5L9.9,4.9L9.7,5l0.2,0.1H9.9L9.8,5.3l0.2,0.1h0.2L10,5.5v0.1 V5.6H9.9v0.2l0,0.2v0.2L9.6,5.7L9.4,5.4L9.3,5.2V5L9.2,5.1L9.1,5.2v0.2H8.9v0.1H8.7L8.6,5.6L8.5,5.7v0.2v0.4h0.1v0.1L8.4,6.5 L8.4,6.7L8.1,6.7v0.1L8,7v0.2L7.9,7.3L7.6,7.6L7.2,7.9H6.7H6.6H6.3L6.1,8H5.9H5.6v0.1L5.5,8.2H4.9L4.8,8.3v0.1L4.5,8.5H4.1L4,8.5 H3.9l0-0.1L3.7,8.5L3.5,8.7L3.2,8.7v0.1H3.1L2.8,9L2.5,9.1L2,9.3L1.8,9.6v0.2L1.6,9.9L1.5,9.8l0.1-0.1V9.6l0.1-0.2V9.3L1.4,9.5 L1.3,9.7l-0.2,0.3l0.1,0.2l-0.1,0.2v0.3l-0.3,0.4l-0.1,0.5l0.1,0.3v0.4L1,12.7v0.2L1.1,13L1,13.2l0.1,0.2l-0.2,0.1l-0.1-0.1v-0.3 l-0.1,0.1v-0.1V13l-0.2-0.3l-0.1,0.2v0.3l0.2,0.2l0.2,0.3H0.6l-0.2-0.2v-0.3l-0.1,0.1l-0.1,0.1l0.2,0.2l0.3,0.3l0.2,0.4V15L1,15.2 l0,0.4l0.3,0.6l-0.1,0.2v0.8v0.1l0.1,0.2v0.3l0.2,0.4v0.2l-0.2,0.1l0.1,0.1l0,0.2V19l-0.1,0.1l0,0.1l0,0.2L1,19.6v0.2l-0.3,0.2 l-0.1-0.1l-0.2,0.3v0.5l0.1,0.1h0.1L1,21v0.1l0.1,0.1h0.2l0.1,0.1h0.2h0.1v0.1h0.2h0.2v0.1l0.1-0.1l0,0h0.2h0.2v-0.1h0.1L3,21.1 h0.3V21l0.2-0.1h0.1L3.7,21l0.1-0.2h0.1h0.1v-0.2l0.5-0.3h0.2l0.1,0.1l0.2-0.1l0.4-0.1l0.1,0.1l0.3,0h0.1h0.1l0.2,0l0.1,0.2h0.1 l0.1-0.1l0.1,0.1l0.1-0.1h0.3v0.1h0.1L7,20.4h0.2l0.2-0.1l0.1-0.2h0.1L7.8,20l0.1-0.3l0.2-0.1l0.2-0.1h0.1l0.3-0.1l0.4-0.2L9.4,19 h0.1h0.3l0.3,0.1h0.2l0.2,0h0.3l0.4-0.1l0.3-0.1l0.2-0.1h0.1l0.2-0.1h0.3l0.9-0.1l0.3,0.1h0.2l0.3-0.1h0.2l0.3,0.2l0.2,0.3h0.1 l0.1-0.1H15l0.1,0.1h0.1h0.2l0.1,0.2h0.2l0.1,0l0.4,0.2v0.1h0.1l0.1,0.1v0.1h-0.1v0.1l0.1,0.3h0.1l0.2,0.2l0.1,0.2v0.1L17,21 l-0.1,0.2l0.1,0.1v0.2l-0.1,0.1l-0.1-0.1l0,0l0.1,0.1l0.1,0.1l0.1,0.2l0.1,0l0.1,0.1v-0.1l-0.1-0.1l0.1-0.1l0.1-0.1h0.1l0.1-0.1 l0.1-0.1v-0.1L18,21l0.4-0.2v-0.1h0.1l0.3-0.1l0.1-0.2l0.2-0.3l0.2,0l0.1-0.1l-0.1-0.2v-0.2l0.1,0.2v0.4l-0.1,0.1l0,0.4l-0.4,0.2 l0,0.2l-0.1,0.1v0.2l-0.2,0.3l0.1,0.1L18.4,22L18,22l-0.1,0.2l-0.1,0.2v0l0.3,0l0.2-0.1l0.3,0.1l0.3-0.4l0.1-0.4l0.2-0.2l0.1,0.1 v0.4l0.1,0.2h-0.1v0.4L19,22.6l-0.3,0.1l0.1,0.1H19h0.2l0.1-0.1h0.1l0.2-0.1h0.1h0.1l-0.1,0.1l-0.1,0.1h-0.1V23l0.1,0.2l0.1,0.2 l0.1,0.2v0.3v0.3l-0.2,0.2v0.1v0.3l0.1,0.1l0.1,0.2v0.2l0.3,0.4l0.2,0l0.1,0.1l0.1,0.2h0.2v-0.1h0.1l0.2,0.1l0.2,0.2h0.2l0.2,0.2 v0.1l0.2,0l0.2,0.2h0.1l0.1-0.1l0.3-0.1l0.1-0.1h0.2l0.2-0.2h0.1l0.1-0.1V26l-0.2,0l0.1-0.1l0.3-0.2l0.3,0.2V26l-0.3,0.2l0.1,0.1 h0.1l0.1-0.1l0.1-0.1l0.2,0.1v0.1h-0.1l-0.1,0.1l0.2,0.2l0,0.3h0.1h0.1v0.1l0.1,0.2l0.1-0.2v-0.2l-0.1,0.1v-0.1l0.1-0.1h0.4l0,0.1 l0.1-0.1l0.2-0.3l0.4-0.2l0.2-0.2h-0.1l-0.1,0l0,0L25.5,26h0.4l0.3-0.1l0.6-0.1l0.5,0.1l0.2-0.1v-0.1h0.1l0.2-0.1l0.1-0.3L27.9,25 v-0.2l0.3-0.3v-0.4l0.1-0.2l0.1-0.3l0.2-0.1v-0.1l0.5-0.6h0.1l0.1-0.3l0.2-0.2l0.1-0.3l0.2-0.2v-0.2l0.1-0.1l0.1-0.3l-0.1-0.1 l0.3-0.1l0.2-0.2l0.1-0.1l0.1-0.2l0.3-0.1l0.1-0.1h-0.2l0.1-0.1h0.3l0.3-0.2l0.1-0.2v-0.1v-0.1l0.3-0.2v-0.2l0.2-0.1l0.2-0.3V19 l0.1-0.2L32,18.6v-0.1l0.2-0.5l0.1-0.3l0.3-0.5v-0.2l0.2-0.4l0.3-0.2l0.1-0.2L33,16.2l0.1-0.1L33,15.7z M25.2,28.1l0,0.1l-0.1,0.1 l0.1,0.1l0,0.1l0.3-0.1v-0.1L25.3,28L25.2,28.1z M23.9,26.3L23.9,26.3l-0.1-0.1L23.9,26.3L23.9,26.3z M20.7,3.3h0.1h0.2l0-0.1 h-0.1H21l0,0l0.1-0.1l0,0H21V2.9h-0.1V3h-0.1l0,0l0,0l0.1,0.2L20.7,3.3L20.7,3.3z M25.3,29v-0.1h-0.1L25.3,29z M25.2,28.6l-0.1,0 l0,0.1h0.3h0.1v-0.1l-0.2-0.1L25.2,28.6z M33.4,13v-0.2v-0.2h-0.1l0,0.1l0,0.1L33.2,13l-0.1,0.1v0.1v0.1l0.1,0.2h0.1l0-0.1v-0.3 L33.4,13z M33.1,15.5l0.1-0.1v-0.2L33.1,15.5z M21.2,4.6l-0.1-0.1L21,4.6l0.1,0.1L21.2,4.6z M24.7,26.8h-0.1H24.7L24.7,26.8z M20.5,3.1L20.5,3.1L20.5,3.1L20.6,3l-0.1-0.1L20.5,3.1L20.5,3.1z M24.4,31.4L24.4,31.4v-0.1V31.4z M22.3,28l0.1-0.2l0-0.1v-0.2 l-0.1-0.1l-0.1,0.1L22,27.6v0.1l-0.1,0.1L22,28v0.1h0.1L22.3,28L22.3,28z M23.5,32v0.1l-0.1,0.2l0.1,0.1l0.1-0.2l0.1-0.1V32 L23.5,32z M18.5,23h-0.1H18.5l-0.2-0.1v-0.1v-0.1h-0.1h-0.1l-0.4,0.1L17.4,23V23l0.1,0.1h0.3h0.1H18l0.1,0.1h0.1v0h0.1l0.1-0.1 L18.5,23l0.2,0L18.5,23L18.5,23z M0,12.8l0.1,0.3l0.1-0.2l-0.1-0.3L0,12.8z M25,29.2l-0.1,0.1h0h-0.1l-0.1,0.1l-0.1,0h-0.5 L24,29.5v0.1l-0.1-0.1h-0.2l-0.1,0.1l-0.2-0.1l-0.2-0.2l-0.3-0.1V29L22.8,29v0.1L22.7,29l-0.1-0.1l-0.2-0.1l0,0.1v0.2h0v0.1v0.3 v0.2V30v0.3v0.2h0.1v0.1l0.1,0.1h-0.2l-0.1-0.1l-0.1,0.1V31l0.1,0.1v0.1v0.4l0.1,0.1v0.1v0.2l0.2,0L22.4,32v0.2h0.1h0.1l0.1,0.1 l0.1-0.2v0.1l0.1,0.1H23l0.1-0.2v-0.1l0.1-0.2l0.1,0.1l0-0.1l0.1-0.1l0.1-0.2v0.2h0.1l0.1-0.1h0.1l0.1,0.1v0.1l-0.2-0.1V32 l0.1-0.1h0.1l0.2-0.2v-0.1l-0.1-0.1l0.1-0.1v-0.2h0.1l0.1-0.1v-0.3l0.1-0.1l0.1-0.1l0,0.2V31l0.1-0.2v-0.1l0-0.1l0-0.2l0.1-0.1V30 l0.1-0.2l0.1-0.4l0.1-0.1L25,29.2L25,29.2z M22.6,28.9h0.1l0.1-0.1l-0.1-0.1h-0.1L22.6,28.9z M0.2,12.2l-0.1,0.3 c0,0,0.1-0.1,0.1-0.1L0.2,12.2z M22.7,28.5L22.7,28.5l-0.1,0.1h0.1V28.5z M22.5,28.5v0.1l0.1,0.1l0.1-0.1v-0.1L22.5,28.5z"/>
    </g>
  </g>
</svg>