<?xml version="1.0" standalone="no"?>
<!DOCTYPE svg PUBLIC "-//W3C//DTD SVG 20010904//EN"
 "http://www.w3.org/TR/2001/REC-SVG-20010904/DTD/svg10.dtd">
<svg version="1.0" xmlns="http://www.w3.org/2000/svg"
 width="512.000000pt" height="512.000000pt" viewBox="0 0 512.000000 512.000000"
 preserveAspectRatio="xMidYMid meet">

<g transform="translate(0.000000,512.000000) scale(0.100000,-0.100000)"
fill="#000000" stroke="none">
<path d="M2505 4935 l-25 -24 0 -295 0 -296 -22 -4 c-13 -3 -45 -8 -73 -11
-123 -16 -312 -96 -430 -180 -71 -51 -191 -170 -241 -240 -117 -163 -194 -400
-194 -600 l0 -70 -110 -58 c-60 -32 -114 -67 -120 -77 -5 -10 -10 -59 -10
-109 l0 -91 -215 0 c-216 0 -216 0 -240 -25 l-25 -24 0 -376 0 -375 -135 0
c-131 0 -137 -1 -160 -25 l-25 -24 0 -536 0 -535 -55 0 c-46 0 -60 -4 -80 -25
-24 -23 -25 -29 -25 -160 l0 -135 -55 0 c-46 0 -60 -4 -80 -25 -25 -24 -25
-26 -25 -215 0 -189 0 -191 25 -215 l24 -25 2351 0 2351 0 24 25 c25 24 25 26
25 215 0 189 0 191 -25 215 -20 21 -34 25 -80 25 l-55 0 0 135 c0 131 -1 137
-25 160 -20 21 -34 25 -80 25 l-55 0 0 535 0 536 -25 24 c-23 24 -29 25 -160
25 l-135 0 0 375 0 376 -25 24 c-24 25 -24 25 -240 25 l-215 0 0 93 c0 64 -4
99 -14 112 -8 11 -62 45 -120 75 l-106 55 0 71 c0 204 -78 438 -200 604 -56
75 -185 203 -250 247 -109 73 -276 143 -393 163 -130 22 -117 11 -117 101 l0
79 215 0 c286 0 265 -19 265 240 0 189 0 191 -25 215 l-24 25 -271 0 -271 0
-24 -25z m455 -215 l0 -80 -160 0 -160 0 0 80 0 80 160 0 160 0 0 -80z m-294
-627 c66 -78 163 -222 205 -305 37 -74 91 -208 87 -219 -2 -5 -87 36 -190 91
-103 55 -197 100 -208 100 -11 0 -83 -34 -161 -76 -78 -41 -143 -74 -144 -72
-9 9 100 228 156 314 68 102 174 234 189 234 5 0 35 -30 66 -67z m-313 35 c-4
-7 -34 -52 -65 -99 -80 -120 -151 -265 -198 -405 -21 -65 -47 -125 -57 -132
-10 -7 -79 -45 -153 -84 -74 -39 -150 -80 -169 -91 l-34 -20 8 68 c36 341 268
635 588 746 96 34 90 32 80 17z m572 -48 c78 -33 186 -109 256 -179 142 -142
233 -333 255 -538 l6 -62 -138 74 c-101 53 -141 80 -146 97 -89 279 -138 394
-227 531 -61 93 -63 97 -57 97 2 0 25 -9 51 -20z m195 -788 l555 -297 3 -57 3
-58 -1121 0 -1121 0 3 57 3 58 555 297 c305 163 557 297 560 297 3 0 255 -134
560 -297z m1040 -892 l0 -320 -80 0 -80 0 0 136 c0 163 -10 200 -67 264 -95
106 -236 108 -338 5 -66 -65 -75 -99 -75 -269 l0 -136 -40 0 -40 0 0 54 c0 37
-6 60 -18 74 -17 20 -830 352 -862 352 -32 0 -845 -332 -862 -352 -12 -14 -18
-37 -18 -74 l0 -54 -40 0 -40 0 0 136 c0 163 -10 200 -67 264 -95 106 -236
108 -338 5 -66 -65 -75 -99 -75 -269 l0 -136 -80 0 -80 0 0 320 0 320 1600 0
1600 0 0 -320z m-2745 -25 c24 -23 25 -29 25 -160 l0 -135 -80 0 -80 0 0 135
c0 131 1 137 25 160 15 16 36 25 55 25 19 0 40 -9 55 -25z m2400 0 c24 -23 25
-29 25 -160 l0 -135 -80 0 -80 0 0 135 c0 131 1 137 25 160 15 16 36 25 55 25
19 0 40 -9 55 -25z m-890 -127 c214 -85 355 -147 355 -155 0 -11 -133 -13
-720 -13 -587 0 -720 2 -720 13 0 12 686 295 717 297 7 0 173 -64 368 -142z
m-1165 -413 l0 -84 -50 6 c-78 9 -136 -12 -195 -71 -32 -32 -55 -66 -63 -92
-8 -28 -12 -134 -12 -338 l0 -296 -80 0 -80 0 0 296 c0 204 -4 310 -12 338
-16 55 -99 138 -154 154 -94 28 -169 8 -239 -63 -32 -31 -55 -65 -63 -91 -8
-28 -12 -134 -12 -338 l0 -296 -80 0 -80 0 0 480 0 480 560 0 560 0 0 -85z
m1440 -395 l0 -480 -159 0 -160 0 -3 283 -3 282 -34 63 c-38 70 -70 101 -145
140 -43 22 -64 26 -136 26 -78 1 -90 -2 -148 -33 -70 -38 -100 -69 -140 -145
l-27 -51 -3 -282 -3 -283 -160 0 -159 0 0 480 0 480 640 0 640 0 0 -480z
m1280 0 l0 -480 -80 0 -80 0 0 296 c0 204 -4 310 -12 338 -26 86 -136 166
-228 166 -92 0 -202 -80 -228 -166 -8 -28 -12 -134 -12 -338 l0 -296 -80 0
-80 0 0 296 c0 204 -4 310 -12 338 -8 26 -31 60 -63 92 -59 59 -117 80 -195
71 l-50 -6 0 84 0 85 560 0 560 0 0 -480z m-3385 135 l25 -24 0 -296 0 -295
-80 0 -80 0 0 295 0 296 25 24 c15 16 36 25 55 25 19 0 40 -9 55 -25z m640 0
l25 -24 0 -296 0 -295 -80 0 -80 0 0 295 0 296 25 24 c15 16 36 25 55 25 19 0
40 -9 55 -25z m913 -2 c14 -10 35 -32 46 -47 20 -26 21 -43 24 -297 l3 -269
-161 0 -160 0 0 254 c0 156 4 266 11 283 14 37 47 72 84 89 40 19 119 12 153
-13z m847 2 l25 -24 0 -296 0 -295 -80 0 -80 0 0 295 0 296 25 24 c15 16 36
25 55 25 19 0 40 -9 55 -25z m640 0 l25 -24 0 -296 0 -295 -80 0 -80 0 0 295
0 296 25 24 c15 16 36 25 55 25 19 0 40 -9 55 -25z m505 -855 l0 -80 -2080 0
-2080 0 0 80 0 80 2080 0 2080 0 0 -80z m160 -320 l0 -80 -2240 0 -2240 0 0
80 0 80 2240 0 2240 0 0 -80z"/>
<path d="M2480 3427 c-49 -16 -133 -102 -148 -153 -28 -94 -8 -169 63 -239 51
-52 102 -75 165 -75 63 0 114 23 165 75 98 97 101 222 8 325 -65 72 -158 97
-253 67z m135 -172 c16 -15 25 -36 25 -55 0 -19 -9 -40 -25 -55 -49 -50 -135
-15 -135 55 0 41 39 80 80 80 19 0 40 -9 55 -25z"/>
</g>
</svg>
