<?xml version="1.0" standalone="no"?>
<!DOCTYPE svg PUBLIC "-//W3C//DTD SVG 20010904//EN"
 "http://www.w3.org/TR/2001/REC-SVG-20010904/DTD/svg10.dtd">
<svg version="1.0" xmlns="http://www.w3.org/2000/svg"
 width="500.000000pt" height="500.000000pt" viewBox="0 0 500.000000 500.000000"
 preserveAspectRatio="xMidYMid meet">

<g transform="translate(0.000000,500.000000) scale(0.100000,-0.100000)"
fill="#000000" stroke="none">
<path d="M2932 3847 c-29 -31 -28 -69 4 -107 l27 -31 -829 -832 c-456 -458
-832 -834 -837 -835 -4 -2 -21 8 -38 22 -40 34 -81 34 -108 0 -39 -49 -30 -68
87 -186 93 -92 114 -108 140 -108 69 0 94 72 45 130 l-26 32 836 835 835 836
32 -26 c58 -49 130 -24 130 45 0 27 -16 48 -108 140 -119 119 -147 131 -190
85z"/>
<path d="M2757 3063 c-274 -274 -683 -685 -908 -914 -340 -347 -409 -422 -409
-445 0 -23 46 -73 261 -289 143 -145 271 -268 284 -275 13 -7 35 -10 49 -6 15
4 376 357 930 911 830 828 906 907 906 937 0 29 -28 60 -273 305 -251 251
-275 273 -307 273 -32 0 -68 -34 -533 -497z m738 117 l200 -200 -838 -838
-837 -837 -202 202 -203 203 69 69 70 70 83 -79 c90 -87 124 -99 163 -60 40
40 28 75 -60 164 l-80 82 54 53 55 54 42 -37 c49 -41 88 -47 119 -16 31 31 26
74 -17 120 l-36 41 53 54 54 55 82 -80 c89 -88 124 -100 164 -60 40 40 28 75
-60 164 l-80 82 55 54 54 53 41 -36 c46 -43 89 -48 120 -17 31 31 26 74 -17
120 l-36 41 53 54 54 55 82 -80 c89 -88 124 -100 164 -60 40 40 28 75 -60 164
l-80 82 55 54 54 53 41 -36 c46 -43 89 -48 120 -17 31 31 26 74 -17 120 l-36
41 53 54 54 55 82 -80 c89 -88 124 -100 164 -60 40 40 28 75 -60 164 l-79 82
67 67 c37 37 69 67 72 67 3 0 95 -90 205 -200z"/>
</g>
</svg>
